<?xml version="1.0" encoding="UTF-8" standalone="no"?>
<!-- Created with Inkscape (http://www.inkscape.org/) -->

<svg
   xmlns:dc="http://purl.org/dc/elements/1.1/"
   xmlns:cc="http://creativecommons.org/ns#"
   xmlns:rdf="http://www.w3.org/1999/02/22-rdf-syntax-ns#"
   xmlns:svg="http://www.w3.org/2000/svg"
   xmlns="http://www.w3.org/2000/svg"
   xmlns:sodipodi="http://sodipodi.sourceforge.net/DTD/sodipodi-0.dtd"
   xmlns:inkscape="http://www.inkscape.org/namespaces/inkscape"
   width="210mm"
   height="297mm"
   id="svg2"
   version="1.1"
   inkscape:version="0.48.2 r9819"
   sodipodi:docname="marker_m.svg">
  <defs
     id="defs4">
    <clipPath
       clipPathUnits="userSpaceOnUse"
       id="clipPath330">
      <path
         inkscape:connector-curvature="0"
         d="m 0,433.7 433.7,0 L 433.7,0 0,0 0,433.7 z"
         id="path332" />
    </clipPath>
    <clipPath
       clipPathUnits="userSpaceOnUse"
       id="clipPath330-5">
      <path
         inkscape:connector-curvature="0"
         d="m 0,433.7 433.7,0 L 433.7,0 0,0 0,433.7 z"
         id="path332-0" />
    </clipPath>
    <clipPath
       clipPathUnits="userSpaceOnUse"
       id="clipPath330-5-9">
      <path
         inkscape:connector-curvature="0"
         d="m 0,433.7 433.7,0 L 433.7,0 0,0 0,433.7 z"
         id="path332-0-3" />
    </clipPath>
    <clipPath
       clipPathUnits="userSpaceOnUse"
       id="clipPath330-5-9-2">
      <path
         inkscape:connector-curvature="0"
         d="m 0,433.7 433.7,0 L 433.7,0 0,0 0,433.7 z"
         id="path332-0-3-3" />
    </clipPath>
  </defs>
  <sodipodi:namedview
     id="base"
     pagecolor="#ffffff"
     bordercolor="#666666"
     borderopacity="1.0"
     inkscape:pageopacity="0.0"
     inkscape:pageshadow="2"
     inkscape:zoom="1.4"
     inkscape:cx="416.54927"
     inkscape:cy="559.21763"
     inkscape:document-units="px"
     inkscape:current-layer="layer1"
     showgrid="false"
     inkscape:window-width="1608"
     inkscape:window-height="869"
     inkscape:window-x="221"
     inkscape:window-y="0"
     inkscape:window-maximized="0" />
  <metadata
     id="metadata7">
    <rdf:RDF>
      <cc:Work
         rdf:about="">
        <dc:format>image/svg+xml</dc:format>
        <dc:type
           rdf:resource="http://purl.org/dc/dcmitype/StillImage" />
        <dc:title />
      </cc:Work>
    </rdf:RDF>
  </metadata>
  <g
     inkscape:label="Camada 1"
     inkscape:groupmode="layer"
     id="layer1">
    <path
       sodipodi:type="arc"
       style="fill:none;fill-opacity:1;stroke:#6d6e70;stroke-opacity:1"
       id="path3953"
       sodipodi:cx="122.05357"
       sodipodi:cy="1042.3622"
       sodipodi:rx="10"
       sodipodi:ry="10"
       d="m 132.05357,1042.3622 a 10,10 0 1 1 -20,0 10,10 0 1 1 20,0 z"
       transform="matrix(8.3754426,0,0,8.3754426,-605.22495,-8255.7149)" />
    <g
       style="fill:#6d6e70;fill-opacity:1"
       id="g326-1-7"
       transform="matrix(0.26476081,0,0,-0.26476081,360.36216,530.18652)">
      <g
         style="fill:#6d6e70;fill-opacity:1"
         clip-path="url(#clipPath330-5-9)"
         id="g328-8-4">
        <g
           style="fill:#6d6e70;fill-opacity:1"
           transform="translate(236.4033,160.8135)"
           id="g334-7-8">
          <path
             id="path336-1-0"
             style="fill:#6d6e70;fill-opacity:1;fill-rule:nonzero;stroke:none"
             d="m 0,0 30.979,39.978 c 0,0 34.242,-42.477 68.482,-34.148 34.24,8.329 48.1,54.137 29.35,79.121 -18.752,24.987 -57.069,27.486 -76.635,8.329 -19.566,-19.155 -63.59,-77.456 -78.264,-94.113 -14.676,-16.657 -52.177,-49.139 -92.94,-50.805 -40.764,-1.666 -86.417,16.658 -106.799,59.966 -20.381,43.31 -13.044,113.27 44.84,143.253 57.883,29.982 103.537,-3.331 114.135,-13.325 10.6,-9.995 26.088,-24.986 26.088,-24.986 l -32.61,-39.145 c 0,0 -32.61,41.644 -66.851,33.314 -34.24,-8.329 -67.252,-84.425 10.6,-99.943 33.423,-6.663 70.111,46.64 70.111,46.64 0,0 58.699,87.451 104.353,101.609 45.654,14.159 97.015,11.66 129.626,-32.481 C 207.074,79.122 209.766,1.993 145.931,-37.479 83.971,-75.79 18.75,-25.819 0,0"
             inkscape:connector-curvature="0" />
        </g>
      </g>
    </g>
  </g>
</svg>
